<svg xmlns="http://www.w3.org/2000/svg" xmlns:bx="https://boxy-svg.com" version="1.1" width="410" height="410" style=""><rect id="backgroundrect" width="100%" height="100%" x="0" y="0" fill="none" stroke="none"/>
  <defs>
    <bx:grid x="0" y="0" width="147.782" height="120.478"/>
  </defs>
  
<g class="currentLayer" style=""><title>Layer 1</title><g id="g8" class="" fill-opacity="1" fill="#dff6ff">
    <g id="g24" stroke-width="0" fill="#dff6ff">
      <path d="M180.18093508541915,386.15184677828387 L180.18093508541915,323.18049937515195 C187.76212585757412,323.9187257798305 195.47234356126842,324.29107320650127 203.32644626792307,324.29107320650127 C206.23014795211895,324.29107320650127 209.1186411386809,324.2388551845677 212.00699415475776,324.13065567966015 L212.00699415475776,386.15184677828387 L180.18093508541915,386.15184677828387 zM134.3824017198283,300.0054003096227 C112.84394514905489,292.1839285986229 93.95905603180734,281.45577127480965 77.72752411235786,267.8288080847358 C65.18051356438252,257.29558628199226 54.69562110803167,245.41939692866333 46.280415949500934,232.22011580336778 L165.23820069126896,132.36267511609321 L165.23820069126896,308.35904893334674 C154.63948980101281,306.4172794488087 144.35174713196227,303.6323182790161 134.3824017198283,300.0054003096227 zM25.41674009402402,162.39521182552812 C25.41674009402402,141.88981793543348 30.071521563396004,122.59555285135775 39.396573340744226,104.51253418145814 C48.72148494760734,86.4402178538918 61.49606227815093,70.58322758522752 77.72752411235786,56.95761688896505 C93.95905603180734,43.33829822912935 112.84394514905489,32.60825917479576 134.3824017198283,24.780495427369374 C155.91314891392074,16.95884730413343 178.89956659583038,13.044906626341344 203.32644626792307,13.044906626341344 C215.2215939749169,13.044906626341344 226.38876626751698,13.923145542533348 236.83574260764703,15.673272534411922 C247.27507965633868,17.429809170874705 257.1611638003202,19.924572212016074 266.486145492426,23.163971302420123 C268.2829208557463,23.781237717101476 270.0644877214329,24.44307762347853 271.85362379331514,25.117736819024003 L39.396573340744226,220.25683760940404 C30.071521563396004,202.18769670209048 25.41674009402402,182.89725388313366 25.41674009402402,162.39521182552812 zM212.00699415475776,311.5824533143297 C209.14891796346365,311.6906528192372 206.25285557070606,311.7428120370921 203.32644626792307,311.7428120370921 C195.46477435507268,311.7428120370921 187.7469173599402,311.3355349876414 180.18093508541915,310.52409750491404 L180.18093508541915,119.81453155484166 L212.00699415475776,93.10277878080649 L212.00699415475776,311.5824533143297 zM401.0083207297854,386.15184677828387 L226.94972854890796,386.15184677828387 L226.94972854890796,323.1073471011819 C242.03648811650362,321.59008426116947 256.98679171684944,318.61353940279605 271.80056926470286,314.1720085304226 C294.28664840002955,307.429826880875 314.2253392242977,297.1720433830155 331.57893587701403,283.41218297495743 C333.5121672075842,281.7905428951566 334.4749982697716,280.1716078029783 334.4749982697716,278.55308433935136 C334.4749982697716,276.93467848388195 333.66383167246806,275.385720245421 332.0641360112055,273.898976722282 C330.44930193755147,272.4198777293809 328.69051277569463,271.67159582723536 326.75728144512425,271.67159582723536 C324.83154923550717,271.67159582723536 323.0575515760162,272.3499596797423 321.45792599999606,273.69716112399794 C303.7783628841679,285.8381452439565 285.45450613355354,295.21892471127785 266.486145492426,301.8255041552186 C254.18926917512078,306.11755505939925 241.00546411331266,309.00307120386134 226.94972854890796,310.51010213417055 L226.94972854890796,81.37689265277288 C226.94972854890796,81.10321847025136 226.91188251792948,80.86135729433602 226.88910481409994,80.60044359690414 L285.87901244769466,31.087291677821895 C288.5930634655432,32.360105962453645 291.29204615624315,33.69660506437606 293.97582034930895,35.10308102001591 C302.9671262016217,39.82534256436122 312.13301439313307,45.15846087880391 321.45792599999606,51.089851890490536 C322.73915431909984,52.17172933140773 324.34634910131547,52.70637601543979 326.2796505171283,52.70637601543979 C328.2052425562605,52.70637601543979 330.0474331567551,52.03806766039986 331.82150090148855,50.682574841039695 C333.58036014858783,49.33325644994886 334.4749982697716,47.85045280008649 334.4749982697716,46.22769544278913 C334.4749982697716,44.61117131783976 333.5121672075842,42.99464719289051 331.57893587701403,41.37171342335694 C323.21671516185313,34.63211915327463 313.9827741998232,28.764412958878665 303.85433528709484,23.768536036090723 C293.73325532483443,18.7790099538081 283.127045313625,14.5278278843615 272.03556508298163,11.02110545194148 C260.951794229019,7.514500627678899 249.53427745002102,4.886017111450883 237.80614287602998,3.129598083145538 C226.06272971916246,1.3730614466828683 214.57709008440338,0.49476372641208854 203.32644626792307,0.49476372641208854 C176.6480080935862,0.49476372641208854 151.57669461622254,4.746004599937464 128.11264600631716,13.242194310561217 C104.64859739641179,21.744676057611855 84.23984485034339,33.28297717442001 66.87874907667401,47.85045280008649 C49.52522250920026,62.42439687441572 35.78038508075883,79.55673000309821 25.65937520374098,99.25315618177308 C15.538365326723124,118.95075844202313 10.473935614631273,139.9996784320415 10.473935614631273,162.39521182552812 C10.473935614631273,184.79380303110986 15.538365326723124,205.83884195193053 25.65937520374098,225.53332759600653 C35.78038508075883,245.23486972953305 49.52522250920026,262.3639098298053 66.87874907667401,276.93467848388195 C84.23984485034339,291.5054471379585 104.64859739641179,303.04051403043513 128.11264600631716,311.5404672020993 C140.0684174481189,315.87056434523384 152.44105591262348,319.09784979541456 165.23820069126896,321.2209710588302 L165.23820069126896,392.62993931014694 C165.23820069126896,396.6775416589469 167.62628524600552,398.7001079476931 172.4101637321594,398.7001079476931 L401.0083207297854,398.7001079476931 C406.14073312715334,398.7001079476931 408.7183982629946,396.6120339152149 408.7183982629946,392.4275356710755 C408.7183982629946,388.24374307588107 406.14073312715334,386.15184677828387 401.0083207297854,386.15184677828387 " style="fill: '%23ff0000' fill-rule: evenodd; stroke: %23ff0000;" id="path26" stroke-width="0" fill="#dff6ff"/>
    </g>
  </g></g></svg>