<svg xmlns="http://www.w3.org/2000/svg" xmlns:bx="https://boxy-svg.com" version="1.1" width="424.41269840068446" height="424.23809520205316" style=""><rect id="backgroundrect" width="100%" height="100%" x="0" y="0" fill="none" stroke="none"/>
  <defs>
    <bx:grid x="0" y="0" width="147.782" height="120.478"/>
  </defs>
  
<g class="currentLayer" style=""><title>Layer 1</title><rect fill="#06283d" stroke-dashoffset="" fill-rule="nonzero" id="svg_1" x="-1.3922380058482433" y="-1.5873106742870835" width="426.47163490722255" height="424.68254367850034" style="color: rgb(6, 40, 61);" class=""/><g id="g8" class="" fill-opacity="1" fill="#dff6ff">
    <g id="g24" stroke-width="0" fill="#dff6ff">
      <path d="M184.14918512165877,397.2629580913885 L184.14918512165877,334.2916106882566 C191.73037589381374,335.0298370929351 199.44059359750804,335.4021845196059 207.2946963041627,335.4021845196059 C210.19839798835858,335.4021845196059 213.08689117492054,335.3499664976723 215.9752441909974,335.2417669927648 L215.9752441909974,397.2629580913885 L184.14918512165877,397.2629580913885 zM138.35065175606792,311.11651162272733 C116.81219518529451,303.29503991172754 97.92730606804696,292.5668825879143 81.69577414859748,278.9399193978404 C69.14876360062215,268.4066975950969 58.6638711442713,256.53050824176796 50.24866598574056,243.3312271164724 L169.20645072750858,143.47378642919784 L169.20645072750858,319.47016024645137 C158.60773983725244,317.52839076191333 148.3199971682019,314.7434295921207 138.35065175606792,311.11651162272733 zM29.384990130263645,173.50632313863275 C29.384990130263645,153.0009292485381 34.03977159963563,133.70666416446238 43.36482337698385,115.62364549456277 C52.68973498384696,97.55132916699642 65.46431231439055,81.69433889833215 81.69577414859748,68.06872820206968 C97.92730606804696,54.44940954223399 116.81219518529451,43.71937048790039 138.35065175606792,35.891606740474 C159.88139895016036,28.069958617238058 182.86781663207,24.156017939445974 207.2946963041627,24.156017939445974 C219.18984401115654,24.156017939445974 230.3570163037566,25.034256855637977 240.80399264388666,26.78438384751655 C251.2433296925783,28.540920483979335 261.1294138365598,31.035683525120703 270.4543955286656,34.27508261552475 C272.2511708919859,34.892349030206105 274.0327377576725,35.55418893658316 275.82187382955476,36.22884813212863 L43.36482337698385,231.36794892250867 C34.03977159963563,213.2988080151951 29.384990130263645,194.0083651962383 29.384990130263645,173.50632313863275 zM215.9752441909974,322.69356462743434 C213.11716799970327,322.8017641323418 210.22110560694568,322.85392335019674 207.2946963041627,322.85392335019674 C199.4330243913123,322.85392335019674 191.71516739617982,322.446646300746 184.14918512165877,321.63520881801867 L184.14918512165877,130.9256428679463 L215.9752441909974,104.21389009391112 L215.9752441909974,322.69356462743434 zM404.976570766025,397.2629580913885 L230.91797858514758,397.2629580913885 L230.91797858514758,334.21845841428654 C246.00473815274324,332.7011955742741 260.95504175308906,329.7246507159007 275.7688193009425,325.28311984352723 C298.2548984362692,318.5409381939796 318.19358926053735,308.2831546961201 335.54718591325366,294.52329428806206 C337.4804172438238,292.9016542082612 338.44324830601124,291.28271911608294 338.44324830601124,289.664195652456 C338.44324830601124,288.0457897969866 337.6320817087077,286.4968315585256 336.03238604744513,285.0100880353866 C334.4175519737911,283.53098904248554 332.65876281193425,282.78270714034 330.7255314813639,282.78270714034 C328.7997992717468,282.78270714034 327.0258016122558,283.46107099284694 325.4261760362357,284.8082724371026 C307.74661292040753,296.9492565570611 289.42275616979316,306.3300360243825 270.4543955286656,312.9366154683232 C258.1575192113604,317.2286663725039 244.97371414955228,320.11418251696597 230.91797858514758,321.6212134472752 L230.91797858514758,92.48800396587751 C230.91797858514758,92.21432978335599 230.8801325541691,91.97246860744065 230.85735485033956,91.71155491000877 L289.8472624839343,42.198402990926525 C292.5613135017828,43.471217275558274 295.26029619248277,44.80771637748069 297.94407038554857,46.214192333120536 C306.9353762378613,50.93645387746585 316.1012644293727,56.26957219190854 325.4261760362357,62.200963203595165 C326.70740435533946,63.28284064451236 328.3145991375551,63.817487328544416 330.2479005533679,63.817487328544416 C332.1734925925001,63.817487328544416 334.01568319299474,63.14917897350449 335.7897509377282,61.793686154144325 C337.54861018482745,60.44436776305349 338.44324830601124,58.961564113191116 338.44324830601124,57.338806755893756 C338.44324830601124,55.72228263094439 337.4804172438238,54.10575850599514 335.54718591325366,52.482824736461566 C327.18496519809275,45.74323046637926 317.95102423606284,39.875524271983295 307.82258532333447,34.87964734919535 C297.70150536107406,29.89012126691273 287.0952953498646,25.63893919746613 276.00381511922126,22.13221676504611 C264.92004426525864,18.62561194078353 253.50252748626065,15.997128424555513 241.7743929122696,14.240709396250168 C230.0309797554021,12.484172759787498 218.545340120643,11.605875039516718 207.2946963041627,11.605875039516718 C180.61625812982584,11.605875039516718 155.54494465246216,15.857115913042094 132.0808960425568,24.353305623665847 C108.61684743265141,32.855787370716484 88.20809488658301,44.39408848752464 70.84699911291364,58.961564113191116 C53.493472545439886,73.53550818752035 39.74863511699846,90.66784131620284 29.627625239980603,110.36426749487771 C19.506615362962748,130.06186975512776 14.442185650870897,151.11078974514612 14.442185650870897,173.50632313863275 C14.442185650870897,195.9049143442145 19.506615362962748,216.94995326503516 29.627625239980603,236.64443890911116 C39.74863511699846,256.3459810426377 53.493472545439886,273.47502114290995 70.84699911291364,288.0457897969866 C88.20809488658301,302.61655845106316 108.61684743265141,314.15162534353976 132.0808960425568,322.65157851520394 C144.03666748435853,326.9816756583385 156.4093059488631,330.2089611085192 169.20645072750858,332.3320823719348 L169.20645072750858,403.74105062325157 C169.20645072750858,407.7886529720515 171.59453528224515,409.8112192607977 176.378413768399,409.8112192607977 L404.976570766025,409.8112192607977 C410.10898316339296,409.8112192607977 412.6866482992342,407.72314522831954 412.6866482992342,403.5386469841801 C412.6866482992342,399.3548543889857 410.10898316339296,397.2629580913885 404.976570766025,397.2629580913885 " style="fill: '%23ff0000' fill-rule: evenodd; stroke: %23ff0000;" id="path26" stroke-width="0" fill="#dff6ff"/>
    </g>
  </g></g></svg>